<?xml version="1.0" encoding="UTF-8"?>
<svg id="Layer_1" data-name="Layer 1" xmlns="http://www.w3.org/2000/svg" viewBox="0 0 416.5 416.5">
  <defs>
    <style>
      .cls-1 {
        fill: #fff;
      }

      .cls-2 {
        fill: #222;
        stroke: #fff;
        stroke-miterlimit: 10;
        stroke-width: 10px;
      }
    </style>
  </defs>
  <circle class="cls-2" cx="208.25" cy="208.25" r="203.25"/>
  <path class="cls-1" d="M144.81,208.4c-.13,5.49,2.09,9.84,5.73,13.47,29.95,29.93,59.89,59.88,89.94,89.7,7.93,7.87,18.94,7.95,26.31,.66,7.45-7.36,7.24-18.47-.83-26.56-24.58-24.65-49.22-49.24-73.95-73.74-2.6-2.58-3.03-3.96-.14-6.81,24.67-24.36,49.17-48.89,73.68-73.41,7.92-7.92,8.8-17.83,2.47-25.57-6.31-7.72-17.28-8.97-25.15-2.84-1.12,.87-2.18,1.82-3.18,2.82-29.38,29.3-58.74,58.61-88.13,87.9-4.06,4.05-6.96,8.58-6.74,14.39Z"/>
</svg>