<?xml version="1.0" encoding="UTF-8"?>
<svg id="Layer_1" data-name="Layer 1" xmlns="http://www.w3.org/2000/svg" viewBox="0 0 17.25 9.77">
  <path d="M16.21,4.86c0-.62,0-1.24,0-1.86,0-.19,.05-.22,.22-.18,.48,.11,.81,.5,.82,1,0,.71,0,1.41,0,2.12,0,.49-.34,.88-.82,1-.17,.04-.22,0-.22-.18,.01-.63,0-1.26,0-1.89Z"/>
  <path d="M0,1.63C0,.73,.73,0,1.62,0H14.59c.9,0,1.62,.73,1.62,1.63v6.51c0,.9-.73,1.63-1.62,1.63H1.62c-.9,0-1.62-.73-1.62-1.63V1.63Zm1.62,0v6.51H14.59V1.63H1.62Zm.81,.81h3.24V7.33H2.43V2.44Zm4.05,0h3.24V7.33h-3.24V2.44Z"/>
</svg>