<?xml version="1.0" encoding="UTF-8"?>
<svg id="Layer_1" data-name="Layer 1" xmlns="http://www.w3.org/2000/svg" viewBox="0 0 17.26 9.76">
  <defs>
    <style>
      .cls-1 {
        fill: #fff;
      }

      .cls-2 {
        fill: #020201;
      }
    </style>
  </defs>
  <path d="M16.48,2.94c-.16-.03-.21,0-.21,.17V1.63c0-.89-.72-1.63-1.63-1.63H1.63C.73,0,0,.73,0,1.63v6.51c0,.89,.73,1.63,1.63,1.63H14.64c.9,0,1.63-.73,1.63-1.63v-1.48c0,.16,.04,.21,.21,.17,.45-.11,.76-.47,.77-.94,0-.67,0-1.33,0-2,0-.46-.33-.84-.77-.94Zm-1.84,5.2H1.63V1.63H14.64v6.51Z"/>
  <g>
    <path class="cls-2" d="M7.07,6.16c-.45,.45-.9,.9-1.34,1.35-.04,.04-.08,.08-.12,.11-.1,.07-.21,.06-.3-.03-.09-.09-.09-.19-.03-.3,.03-.04,.06-.07,.1-.11,.57-.57,1.13-1.14,1.7-1.7,.15-.15,.1-.33,.13-.49,.01-.06-.06-.05-.1-.05-.25,0-.5,0-.75,0-.12,0-.23-.03-.27-.15-.05-.12,.01-.21,.1-.3,.76-.75,1.51-1.51,2.26-2.26,.09-.09,.19-.16,.33-.09,.14,.07,.14,.19,.13,.32-.05,.44-.09,.88-.14,1.32,.07,0,.09-.06,.13-.1,.43-.43,.86-.86,1.29-1.29,.02-.02,.05-.05,.07-.07,.11-.1,.25-.11,.34-.02,.1,.1,.1,.24,0,.35-.27,.27-.53,.54-.8,.8-.33,.33-.66,.66-1.02,1.02,.12,0,.21,0,.3,0,.18,0,.35,0,.53,0,.11,0,.19,.05,.23,.15,.04,.1,.01,.18-.06,.26-.02,.02-.04,.04-.06,.06-.74,.74-1.48,1.48-2.22,2.22-.02,.02-.05,.05-.07,.07-.08,.07-.16,.09-.26,.05-.1-.04-.15-.13-.14-.23,.02-.25,.05-.5,.07-.75,0-.04,0-.09,.01-.13-.01,0-.02,0-.03-.01Zm.65-1.32c.15-.15,.26-.28,.39-.4,.09-.08,.12-.17,.13-.28,.03-.39,.07-.77,.11-1.13-.47,.47-.95,.95-1.43,1.42,.14,0,.29,0,.45,0,.27,0,.34,.07,.34,.38Zm1.27,.09c-.2,0-.4,0-.6,0-.06,0-.1,0-.14,.05-.19,.19-.37,.38-.56,.56-.04,.04-.06,.07-.06,.13-.02,.24-.05,.48-.07,.71,.47-.47,.95-.95,1.44-1.44Z"/>
    <path class="cls-1" d="M7.72,4.85c0-.31-.07-.38-.34-.38-.16,0-.31,0-.45,0,.48-.48,.96-.96,1.43-1.42-.03,.36-.07,.74-.11,1.13,0,.11-.05,.2-.13,.28-.13,.12-.25,.25-.39,.4Z"/>
    <path class="cls-1" d="M8.99,4.93c-.49,.49-.97,.97-1.44,1.44,.02-.22,.05-.47,.07-.71,0-.05,.03-.09,.06-.13,.19-.19,.38-.37,.56-.56,.04-.04,.08-.05,.14-.05,.2,.01,.41,0,.6,0Z"/>
  </g>
</svg>