<?xml version="1.0" encoding="UTF-8"?>
<svg id="Layer_1" data-name="Layer 1" xmlns="http://www.w3.org/2000/svg" viewBox="0 0 17.26 9.76">
  <path d="M2.44,2.44V7.32h3.25V2.44H2.44Zm0,0V7.32h3.25V2.44H2.44Zm0,0V7.32h3.25V2.44H2.44Z"/>
  <path d="M16.48,2.94c-.16-.03-.21,0-.21,.17V1.63c0-.89-.72-1.63-1.63-1.63H1.63C.73,0,0,.73,0,1.63v6.51c0,.89,.73,1.63,1.63,1.63H14.64c.9,0,1.63-.73,1.63-1.63v-1.48c0,.16,.04,.21,.21,.17,.45-.11,.76-.47,.77-.94,0-.67,0-1.33,0-2,0-.46-.33-.84-.77-.94Zm-1.84,5.2H1.63V1.63H14.64v6.51Z"/>
</svg>