<?xml version="1.0" encoding="UTF-8"?>
<svg id="Layer_1" data-name="Layer 1" xmlns="http://www.w3.org/2000/svg" viewBox="0 0 17.25 9.77">
  <path d="M0,1.63C0,.73,.74,0,1.64,0H14.79c.91,0,1.64,.73,1.64,1.63v6.51c0,.9-.74,1.63-1.64,1.63H1.64c-.91,0-1.64-.73-1.64-1.63V1.63Zm1.64,0v6.51H14.79V1.63H1.64Zm.82,.81h3.29V7.33H2.47V2.44Zm4.11,0h3.29V7.33h-3.29V2.44Zm4.11,0h3.29V7.33h-3.29V2.44Z"/>
  <path d="M16.44,4.87c0-.48,0-.96,0-1.44,0-.14,.04-.17,.17-.14,.37,.09,.63,.39,.64,.77,0,.55,0,1.09,0,1.64,0,.38-.27,.68-.64,.77-.14,.03-.17,0-.17-.14,0-.49,0-.97,0-1.46Z"/>
</svg>