<?xml version="1.0" encoding="utf-8"?>
<!-- Generator: Adobe Illustrator 26.5.0, SVG Export Plug-In . SVG Version: 6.00 Build 0)  -->
<svg version="1.1" id="Layer_1" xmlns="http://www.w3.org/2000/svg" xmlns:xlink="http://www.w3.org/1999/xlink" x="0px" y="0px"
	 viewBox="0 0 1280 1024" style="enable-background:new 0 0 1280 1024;" xml:space="preserve">
<style type="text/css">
	.st0{fill:#020201;}
	.st1{fill:#FFFFFF;}
</style>
<path d="M758,300.8H558.3c-27.6,0-50,22.4-50,50.3v403.4c0,27.6,22.4,50.3,50,50.3H758c27.6,0,50-22.4,50-50.3V351.1
	C808,323.5,785.6,300.8,758,300.8z M758,754.5H558.3V351.1H758V754.5z"/>
<path d="M657.7,300.5h-44.2c-4.3,0-5.2-1.2-4.3-5.2c2.8-11.3,12-19.3,23.6-19.6h50.3c11.7,0,20.9,8.3,23.6,19.6
	c0.9,4.3,0,5.2-4.3,5.2C702.5,300.5,657.7,300.5,657.7,300.5z"/>
<g>
	<path class="st0" d="M633.9,579.5c-12.2,12.2-24.5,24.5-36.4,36.7c-1.1,1.1-2.2,2.2-3.3,3c-2.7,1.9-5.7,1.6-8.2-0.8
		c-2.4-2.5-2.4-5.2-0.8-8.2c0.8-1.1,1.6-1.9,2.7-3c15.5-15.5,30.7-31,46.2-46.2c4.1-4.1,2.7-9,3.5-13.3c0.3-1.6-1.6-1.4-2.7-1.4
		h-20.4c-3.3,0-6.2-0.8-7.3-4.1c-1.4-3.3,0.3-5.7,2.7-8.2c20.7-20.4,41-41,61.4-61.4c2.4-2.5,5.2-4.4,9-2.5c3.8,1.9,3.8,5.2,3.5,8.7
		c-1.4,12-2.5,23.9-3.8,35.9c1.9,0,2.5-1.6,3.5-2.7c11.7-11.7,23.4-23.4,35-35.1c0.5-0.5,1.4-1.4,1.9-1.9c3-2.7,6.8-3,9.2-0.5
		c2.7,2.7,2.7,6.5,0,9.5c-7.3,7.3-14.4,14.7-21.7,21.7c-9,9-17.9,17.9-27.7,27.7h22.5c3,0,5.2,1.4,6.2,4.1c1.1,2.7,0.3,4.9-1.6,7.1
		c-0.5,0.5-1.1,1.1-1.6,1.6c-20.1,20.1-40.2,40.2-60.3,60.3l-1.9,1.9c-2.2,1.9-4.4,2.5-7.1,1.4c-2.7-1.1-4.1-3.5-3.8-6.2
		c0.5-6.8,1.4-13.6,1.9-20.4c0-1.1,0-2.5,0.3-3.5c-0.3,0-0.5,0-0.8-0.3L633.9,579.5L633.9,579.5z M651.6,543.7
		c4.1-4.1,7.1-7.6,10.6-10.9c2.5-2.2,3.3-4.6,3.5-7.6c0.8-10.6,1.9-20.9,3-30.7c-12.8,12.8-25.8,25.8-38.8,38.6h12.2
		c7.3,0,9.2,1.9,9.2,10.3L651.6,543.7L651.6,543.7z M686.1,546.1h-16.3c-1.6,0-2.7,0-3.8,1.4c-5.2,5.2-10,10.3-15.2,15.2
		c-1.1,1.1-1.6,1.9-1.6,3.5c-0.5,6.5-1.4,13-1.9,19.3c12.8-12.8,25.8-25.8,39.1-39.1L686.1,546.1L686.1,546.1z"/>
	<path class="st1" d="M651.6,543.9c0-8.4-1.9-10.3-9.2-10.3h-12.2c13-13,26.1-26.1,38.9-38.6c-0.8,9.8-1.9,20.1-3,30.7
		c0,3-1.4,5.4-3.5,7.6c-3.5,3.3-6.8,6.8-10.6,10.9L651.6,543.9L651.6,543.9z"/>
	<path class="st1" d="M686.1,546.1c-13.3,13.3-26.4,26.4-39.1,39.1c0.5-6,1.4-12.8,1.9-19.3c0-1.4,0.8-2.5,1.6-3.5
		c5.2-5.2,10.3-10,15.2-15.2c1.1-1.1,2.2-1.4,3.8-1.4c5.4,0.3,11.1,0,16.3,0L686.1,546.1L686.1,546.1z"/>
</g>
</svg>
