<?xml version="1.0" encoding="UTF-8"?>
<svg id="Layer_1" data-name="Layer 1" xmlns="http://www.w3.org/2000/svg" viewBox="0 0 299.7 529.1">
  <path d="M50,529.1c-27.6,0-50-22.7-50-50.3V75.4C0,47.5,22.4,25.1,50,25.1H249.7c27.6,0,50,22.7,50,50.3V478.8c0,27.9-22.4,50.3-50,50.3H50Zm0-50.3H249.7V75.4H50V478.8Zm24.9-25.2v-100.9H224.9v100.6H74.9v.3Zm0-126.1v-100.9H224.9v100.9H74.9Zm0-126V100.5H224.9v101H74.9Z"/>
  <path d="M149.4,24.8h-44.2c-4.3,0-5.2-1.2-4.3-5.2C103.7,8.2,112.9,.3,124.5,0h50.3c11.7,0,20.9,8.3,23.6,19.6,.9,4.3,0,5.2-4.3,5.2h-44.7Z"/>
</svg>