<?xml version="1.0" encoding="UTF-8"?>
<svg id="Layer_1" data-name="Layer 1" xmlns="http://www.w3.org/2000/svg" viewBox="0 0 299.72 529.18">
  <path d="M74.85,352.79v100.62H224.87v-100.62H74.85Zm0,0v100.62H224.87v-100.62H74.85ZM249.71,25.15H50.01C22.4,25.15,0,47.55,0,75.46V478.87c0,27.61,22.4,50.31,50.01,50.31H249.71c27.61,0,50.01-22.39,50.01-50.31V75.46c0-27.61-22.4-50.31-50.01-50.31Zm0,453.72H50.01V75.46H249.71V478.87Zm-24.84-126.08H74.85v100.62H224.87v-100.62h0Zm-150.02,0v100.62H224.87v-100.62s-150.02,0-150.02,0Zm0,0v100.62H224.87v-100.62s-150.02,0-150.02,0Z"/>
  <path d="M149.4,24.85h-44.18c-4.29,0-5.22-1.23-4.29-5.22C103.69,8.28,112.89,.31,124.55,0h50.31c11.66,0,20.86,8.28,23.62,19.63,.92,4.29,0,5.22-4.29,5.22,0,0-44.79,0-44.79,0Z"/>
</svg>