<?xml version="1.0" encoding="UTF-8"?>
<svg id="Layer_1" data-name="Layer 1" xmlns="http://www.w3.org/2000/svg" viewBox="0 0 54 60">
  <path d="M8.9,29.7c-.6,.1-1.2,.1-1.9,.1-.6,0-1.2,0-1.9-.1-.6-.1-1.1,.4-1.1,1v27.3c0,1.1,.9,2,2,2h2c1.1,0,2-.9,2-2V30.7c0-.7-.5-1.1-1.1-1Z"/>
  <path d="M28.9,50.7c-.6,.1-1.2,.1-1.9,.1-.6,0-1.2,0-1.9-.1-.6-.1-1.1,.4-1.1,1v6.3c0,1.1,.9,2,2,2h2c1.1,0,2-.9,2-2v-6.3c0-.7-.5-1.1-1.1-1Z"/>
  <path d="M48.9,35.7c-.6,.1-1.2,.1-1.9,.1-.6,0-1.2,0-1.9-.1-.6-.1-1.1,.4-1.1,1v21.3c0,1.1,.9,2,2,2h2c1.1,0,2-.9,2-2v-21.3c0-.7-.5-1.1-1.1-1Z"/>
  <path d="M10,10.7V2c0-1.1-.9-2-2-2h-2c-1.1,0-2,.9-2,2V10.7C1.6,11.8,0,14.2,0,17c0,3.9,3.1,7,7,7s7-3.1,7-7c0-2.8-1.6-5.2-4-6.3Z"/>
  <path d="M30,31.7V2c0-1.1-.9-2-2-2h-2c-1.1,0-2,.9-2,2V31.7c-2.4,1.1-4,3.5-4,6.3,0,3.9,3.1,7,7,7s7-3.1,7-7c0-2.8-1.6-5.2-4-6.3Z"/>
  <path d="M50,16.7V2c0-1.1-.9-2-2-2h-2c-1.1,0-2,.9-2,2v14.7c-2.4,1.1-4,3.5-4,6.3,0,3.9,3.1,7,7,7s7-3.1,7-7c0-2.8-1.6-5.2-4-6.3Z"/>
</svg>