<?xml version="1.0" encoding="UTF-8"?>
<svg id="Capa_1" data-name="Capa 1" xmlns="http://www.w3.org/2000/svg" viewBox="0 0 292.03 171.5">
  <defs>
    <style>
      .cls-1 {
        fill: #fff;
      }
    </style>
  </defs>
  <path class="cls-1" d="M0,26.46c1.02-.52,.82-1.62,1.04-2.46C4.64,10.34,16.41,.69,30.53,.15c6.45-.25,12.92-.11,19.38-.12,37.81,0,75.63,.03,113.44-.02,14.04-.02,24.45,5.83,30.79,18.49,2.3,4.59,3.01,9.57,3.01,14.64,.01,35.05,.04,70.11,0,105.16-.02,16.84-10.61,29.79-26.69,32.72-2.5,.45-5.11,.45-7.67,.45-42.75,.03-85.51,.02-128.26,.02-17.74,0-28.81-8.29-33.85-25.34-.13-.43-.04-.97-.67-1.08V26.46Z"/>
  <path class="cls-1" d="M291.99,85.82c0,16.34,.11,32.67-.04,49.01-.11,12.97-12.23,21.91-24.52,18.34-2.02-.59-3.86-1.56-5.66-2.59-15.46-8.85-30.89-17.75-46.38-26.54-1.71-.97-2.32-2.01-2.32-3.97,.07-22.98,.06-45.97,.03-68.95,0-1.59,.15-2.72,1.82-3.67,15.97-9.1,31.84-18.38,47.8-27.49,9.87-5.64,21.16-2.61,26.82,7.05,1.92,3.28,2.47,6.91,2.47,10.67-.01,16.05,0,32.1,0,48.15Z"/>
</svg>