<?xml version="1.0" encoding="UTF-8"?>
<svg id="Layer_1" data-name="Layer 1" xmlns="http://www.w3.org/2000/svg" viewBox="0 0 383.14 245.56">
  <defs>
    <style>
      .cls-1 {
        fill: #fff;
      }
    </style>
  </defs>
  <path class="cls-1" d="M0,110.07c1.91-4.46,1.89-9.32,2.9-13.97C13.27,48.37,52.44,10.69,100.62,2.15,108.38,.77,116.17,.07,124.03,.07c18.07,0,36.15,.07,54.22-.07,2.72-.02,3.74,.9,4.67,3.36,17.2,45.52,24.18,92.58,21.14,141.09-2.11,33.74-9.19,66.47-21.28,98.08-.83,2.16-1.68,3.05-4.12,3.04-18.7-.12-37.4,.12-56.09-.13-52.94-.7-98.98-34.09-116.27-84.13-2.65-7.67-4.28-15.58-5.43-23.6-.11-.77,.32-1.83-.86-2.2v-25.44Z"/>
  <path class="cls-1" d="M206.8,.13c9.92,0,19.5-.21,29.07,.08,5.07,.16,8.51,3.27,10.22,8.04,6.65,18.53,11.74,37.49,15.07,56.9,4.35,25.29,5.87,50.74,4.44,76.36-1.84,32.91-8.38,64.86-19.53,95.87-1.66,4.62-5.01,7.77-9.89,7.94-9.67,.34-19.36,.1-29.37,.1,28.69-81.85,28.7-163.48-.01-245.3Z"/>
  <path class="cls-1" d="M337.7,147.29c10.97,0,21.94-.04,32.91,.01,7.33,.04,12.45,4.82,12.49,11.52,.04,6.64-5.2,11.76-12.33,11.78-22.19,.05-44.38,.05-66.57,0-6.36-.01-11.2-4.06-12.21-9.94-.89-5.14,2.2-10.4,7.3-12.59,1.79-.77,3.64-.77,5.5-.77,10.97-.02,21.94,0,32.91,0Z"/>
  <path class="cls-1" d="M337.35,98.28c-10.85,0-21.7-.24-32.54,.08-8.22,.24-12.92-6.19-12.95-11.57-.04-6.87,5.36-11.82,13.07-11.83,21.94-.02,43.88-.03,65.82,0,6.11,.01,10.76,3.62,12.09,9.16,1.19,4.94-1.41,10.43-6.06,12.91-2.06,1.1-4.26,1.25-6.53,1.25-10.97-.01-21.94,0-32.91,0Z"/>
  <path class="cls-1" d="M321.76,2.81c10.97,0,21.94-.07,32.9,.02,7.29,.06,12.28,4.97,12.22,11.74-.07,6.69-5.23,11.56-12.48,11.58-22.06,.04-44.12,.04-66.18,0-6.32-.01-11.2-3.86-12.19-9.42-1.04-5.8,1.9-11.05,7.32-13.2,1.92-.76,3.9-.71,5.89-.71,10.84-.02,21.69,0,32.53,0Z"/>
  <path class="cls-1" d="M321.34,242.76c-10.84,0-21.69,.03-32.53-.01-7.86-.03-13.09-4.79-13.02-11.74,.07-6.93,5.36-11.6,13.23-11.61,21.81-.01,43.62-.02,65.43,0,5.76,0,10.15,3.02,11.87,7.95,1.62,4.63-.05,9.96-4.02,13.04-2.51,1.95-5.38,2.37-8.44,2.37-10.84-.03-21.69-.01-32.53-.01Z"/>
</svg>