<?xml version="1.0" encoding="UTF-8"?>
<svg id="Layer_1" data-name="Layer 1" xmlns="http://www.w3.org/2000/svg" viewBox="0 0 17.66 8.27">
  <defs>
    <style>
      .cls-1 {
        fill: #fff;
      }
    </style>
  </defs>
  <path class="cls-1" d="M9.21,6.26H1.42C.63,6.26,0,5.63,0,4.85v-1.42c0-.78,.63-1.42,1.42-1.42h7.79s1.42-1.42,1.42-1.42h1.42s0,7.08,0,7.08h-1.42s-1.42-1.42-1.42-1.42Zm-.71-2.83h-.71c-.39,0-.71,.32-.71,.71s.32,.71,.71,.71h.71c.39,0,.71-.32,.71-.71s-.32-.71-.71-.71ZM14.17,.6V7.68s-1.42,0-1.42,0V.6s1.42,0,1.42,0Z"/>
  <path class="cls-1" d="M15.34,4.36c.06,.06,.15,.1,.24,.11l1.74,.03c.19,0,.35-.15,.35-.34,0-.19-.15-.35-.34-.35l-1.74-.03c-.19,0-.35,.15-.35,.34,0,.1,.04,.18,.1,.25Z"/>
  <path class="cls-1" d="M16.74,7.69l-1.21-1.25h0c-.13-.14-.35-.14-.49,0s-.14,.35,0,.49l1.21,1.25h0c.13,.14,.35,.14,.49,0s.14-.35,0-.49Z"/>
  <path class="cls-1" d="M15.13,1.79c.13,.14,.35,.14,.49,0l1.25-1.21c.14-.13,.14-.35,0-.49s-.35-.14-.49,0l-1.25,1.21c-.14,.13-.14,.35,0,.49Z"/>
</svg>