<?xml version="1.0" encoding="UTF-8"?>
<svg id="Layer_1" data-name="Layer 1" xmlns="http://www.w3.org/2000/svg" viewBox="0 0 425.16 410.04">
  <defs>
    <style>
      .cls-1 {
        fill: #6ebe44;
      }
    </style>
  </defs>
  <path d="M281.97,292.58c0-.35,0-.69,0-1.04,.02-24.14,.06-48.29,.06-72.43,0-8.83-.22-17.66-.25-26.49-.03-8.57,3.78-15.29,10.93-20.04,4.82-3.2,10.14-4.31,15.85-3.4,1.64,.26,3.27,.71,4.75,1.52,.85,.47,1.1,.25,1.18-.65,.2-2.2-.04-4.39,.09-6.59,.55-8.77,4.51-15.32,12.52-19.22,5.12-2.49,10.53-2.92,15.97-1.63,5.98,1.42,10.62,4.85,13.67,10.29,1.06,1.89,1.85,3.86,2.38,5.96,.3,1.21,.7,1.43,1.89,.97,3.36-1.27,6.8-2.1,10.4-1.69,9.44,1.06,16.04,5.95,19.67,14.8,1.13,2.75,1.37,5.63,1.48,8.55,.2,5.19-.06,10.39,0,15.69,2.78-.7,5.53-1.21,8.38-1.15,6.67,.15,12.12,2.91,16.67,7.62,3.79,3.92,5.45,8.67,5.38,14.1-.17,12.59,.22,25.17,.75,37.75,.71,16.84,1.64,33.68,1.37,50.55-.13,8.43-.6,16.83-1.37,25.23-.49,5.37-1.14,10.72-2.01,16.03-.77,4.71-1.9,9.36-3.22,13.95-1.88,6.57-3.7,13.16-5.64,19.71-1.7,5.73-2.81,11.6-4.1,17.42-1.32,5.93-5.97,10.58-12.43,11.39-1.32,.16-2.62,.21-3.94,.21-23.74,.01-47.48,.03-71.22,.04-4.72,0-9.43-.02-14.15-.04-6.54-.03-12.13-3.96-14.26-10.04-1.53-4.36-3.34-8.57-6.01-12.38-1.86-2.65-4.06-4.98-6.54-7.05-5.18-4.32-9.73-9.25-13.85-14.57-4.56-5.89-8.42-12.24-11.99-18.75-2.44-4.45-4.7-9.01-6.87-13.61-3.7-7.83-6.97-15.84-9.98-23.96-2.07-5.59-3.98-11.23-5.72-16.93-.95-3.12-2.05-6.18-2.21-9.49-.32-6.71,2.95-11.86,9.21-14.22,4.65-1.75,9.43-2.02,14.35-1.34,4.68,.64,8.95,2.21,12.8,4.89,3.89,2.71,6.92,6.28,9.58,10.18,2.2,3.22,4.19,6.57,6.43,9.85Zm12.71-41.28c0,19.35,0,38.7,0,58.04,0,.64,0,1.28-.03,1.92-.23,3.85-2.89,6.42-6.74,6.16-3.95-.26-7.13-2.3-9.82-5.09-3.25-3.36-5.38-7.46-7.38-11.62-2-4.16-3.86-8.4-6.61-12.13-4.44-6.04-10.26-9.34-17.97-8.36-3.64,.46-3.7,1.57-3.07,4.13,.86,3.47,1.84,6.91,2.88,10.33,1.78,5.9,3.85,11.69,6.06,17.44,2.62,6.79,5.65,13.39,8.9,19.9,3.89,7.79,8.1,15.4,13.1,22.54,3.79,5.42,8.02,10.47,13.02,14.83,3.78,3.31,7.33,6.82,10.22,10.97,2.91,4.17,5.23,8.64,6.9,13.42,.93,2.65,1.81,3.42,4.58,3.41,4.68,0,9.35-.05,14.03-.04,23.18,.01,46.36,.03,69.54,.05,3.1,0,3.76-.55,4.29-3.58,.01-.08,.02-.16,.03-.24,.92-6.81,2.64-13.41,5-19.87,2.76-7.56,4.86-15.32,6.44-23.2,1.36-6.77,2.29-13.61,2.9-20.49,.63-7.16,1.01-14.34,1.18-21.53,.39-15.95-.19-31.87-1-47.79-.45-8.81-.8-17.63-1.05-26.45-.16-5.51-.08-11.03-.06-16.54,.01-3.18-1.41-5.47-4.13-7.01-3.19-1.8-6.51-1.76-9.95-.83-3.01,.81-3.53,2.26-3.53,4.85,0,4.39,.1,8.79,.1,13.18,.01,16.27,0,32.54,.01,48.81,0,1.17-.11,2.32-.31,3.46-.44,2.58-2.61,4.56-5.23,4.82-3.1,.3-5.59-1.07-6.68-3.54-.71-1.61-.66-3.27-.66-4.94-.01-31.14-.01-62.28-.01-93.42,0-.92,.01-1.84-.08-2.76-.11-1.15-.27-2.29-.73-3.37-1.45-3.41-4.08-5.27-7.69-5.59-4.06-.36-7.58,.72-9.88,4.42-1.21,1.94-1.4,4.12-1.4,6.33,0,29.94,0,59.88,0,89.82,0,.48,0,.96-.02,1.44-.17,3.42-1.86,5.37-5.19,6.02-2.6,.5-5.27-.51-6.56-2.63-.97-1.59-1.01-3.42-1.01-5.22,0-34.38,0-68.76,0-103.14,0-1.4-.03-2.8-.08-4.19-.17-4.43-2.69-7.81-6.95-8.9-3.46-.88-6.81-.57-9.58,2.09-2.34,2.25-3.18,5.06-3.18,8.2,0,16.35,0,32.7,0,49.05,0,19.39,0,38.78,0,58.16,0,2.43-.69,4.55-2.92,5.76-2.49,1.35-5.08,1.3-7.48-.29-1.97-1.3-2.35-3.37-2.34-5.56,0-6.03,0-12.07,0-18.1-.02-20.91-.07-41.81-.07-62.72,0-5-2.9-9.22-8.18-9.98-3.34-.48-8.25,.7-10.1,4.34-1.03,2.01-1.5,4.11-1.5,6.32-.01,19.63,0,39.26,0,58.88Z"/>
  <path class="cls-1" d="M143.41,292.51c2.18-3.68,4.37-7.22,6.76-10.63,3.88-5.54,8.58-10.12,15.05-12.54,6.48-2.42,13.1-2.82,19.72-.87,7.25,2.14,11.12,7.81,10.52,15.43-.3,3.84-1.74,7.35-2.8,10.96-1.12,3.8-2.46,7.55-3.81,11.28-2.04,5.64-4.18,11.24-6.55,16.75-1.52,3.54-3.01,7.08-4.66,10.56-2.62,5.51-5.38,10.95-8.37,16.28-2.53,4.51-5.25,8.9-8.26,13.1-4.73,6.62-10.09,12.66-16.37,17.87-3.54,2.94-6.4,6.49-8.61,10.55-1.55,2.84-2.63,5.85-3.74,8.87-2.15,5.88-7.76,9.83-14.07,9.84-25.14,.04-50.27,.04-75.41,.05-3.84,0-7.67,0-11.51-.04-4.13-.04-7.83-1.24-10.88-4.14-2.42-2.31-3.81-5.23-4.39-8.44-1.29-7.18-3.13-14.22-5.14-21.22-1.5-5.2-3.03-10.38-4.49-15.59-2.47-8.82-3.84-17.81-4.82-26.9-1.69-15.69-1.77-31.41-1.44-47.16,.31-15.1,1.22-30.17,1.7-45.26,.26-8.11,.36-16.22,.29-24.33-.05-6.04,2.45-10.94,6.94-14.86,6.19-5.41,13.28-7.26,21.32-5.36,2.13,.51,2.13,.49,2.13-1.65,0-5.12-.18-10.24,.07-15.34,.32-6.53,3.05-11.99,8.11-16.25,4.02-3.39,8.65-5.17,13.85-5.42,3.13-.15,6.17,.47,9.11,1.65,1.65,.67,2.08,.4,2.47-1.35,.33-1.45,.85-2.82,1.5-4.14,2.71-5.51,6.94-9.3,12.83-11.16,5.63-1.79,11.22-1.49,16.62,.73,5.52,2.26,9.51,6.22,11.73,11.85,1.23,3.12,1.87,6.32,1.77,9.68-.04,1.6,.05,3.2,.05,4.79,0,.8,.33,1.01,1.02,.68,5.43-2.61,10.97-2.54,16.47-.42,6.13,2.36,10.5,6.69,13.24,12.67,1.81,3.95,2.07,8.13,1.98,12.4-.14,6.79-.21,13.59-.21,20.38-.01,22.18,.02,44.37,.03,66.55,0,3.04,.02,6.08,.04,9.11,0,.3-.12,.63,.2,1.02Zm-13.03-41.28v-17.15c0-13.71-.02-27.42,0-41.13,.01-6.37-2.51-10.3-8.33-11.19-3.99-.6-8.53,1.06-10.37,5.1-.86,1.89-1.04,3.82-1.04,5.82,0,26.34,0,52.69,0,79.03,0,.52,0,1.04-.04,1.56-.24,3.4-1.8,5.32-5.12,5.92-3.02,.55-6.67-.61-7.47-4.75-.25-1.28-.19-2.54-.19-3.82,0-32.78,0-65.56,0-98.33,0-2.6,.04-5.2-.03-7.79-.13-5.28-3.97-9.71-9.27-9.74-3.64-.02-6.73,1.05-8.84,4.22-1.29,1.93-1.61,4.09-1.61,6.37,.02,35.22,.01,70.43,0,105.65,0,.96-.02,1.92-.16,2.87-.24,1.74-.88,3.33-2.38,4.38-2.43,1.71-7.92,1.76-9.75-2.43-.48-1.11-.55-2.32-.55-3.53,0-25.46,0-50.93,0-76.39,0-4.96-.08-9.91-.02-14.87,.06-5-3.25-9.18-8.33-9.8-6.01-.73-11.04,2.63-11.35,8.94-.24,4.87-.16,9.75-.16,14.62-.01,27.42,0,54.84,0,82.27,0,.68-.01,1.36-.05,2.04-.15,2.5-1.67,4.62-3.77,5.3-2.97,.96-5.54,.36-7.3-1.67-1.27-1.47-1.66-3.24-1.66-5.1-.02-18.47-.01-36.94,0-55.4,0-2.92,.03-5.84,0-8.75-.01-1.87-.76-2.97-2.49-3.51-2.57-.81-5.18-1.28-7.88-.62-4.38,1.06-7.39,4-7.17,9.01,.1,2.23,.1,4.48,.08,6.71-.11,9.55-.38,19.09-.81,28.63-.57,12.57-1.29,25.13-1.37,37.72-.1,16.3,.17,32.59,2.46,48.77,.95,6.71,2.25,13.34,3.97,19.91,1.25,4.78,2.73,9.47,4.39,14.11,2.29,6.4,3.94,12.94,4.76,19.69,.29,2.39,1.25,3.28,3.68,3.33,1.96,.03,3.92-.03,5.87-.04,23.34,0,46.68,0,70.02,0,2.88,0,5.75,.06,8.63,.04,2.14-.01,3.29-.77,3.94-2.47,.45-1.19,.89-2.38,1.35-3.57,1.24-3.24,2.86-6.29,4.75-9.18,2.95-4.52,6.58-8.45,10.68-11.98,6.45-5.56,11.72-12.16,16.31-19.3,4.88-7.59,9.06-15.57,12.96-23.7,3.25-6.77,6.11-13.71,8.67-20.77,1.02-2.8,1.94-5.63,2.86-8.47,1.47-4.5,2.75-9.06,3.82-13.66,.61-2.65,.13-3.4-2.77-3.85-6.55-1-11.96,1.34-16.44,6.04-2.66,2.8-4.35,6.24-6.1,9.63-2.16,4.2-3.96,8.6-6.61,12.53-2.83,4.2-6.33,7.59-11.46,8.8-2.59,.61-4.91,.12-6.71-1.99-1.32-1.55-1.57-3.45-1.57-5.39,0-19.55,0-39.09,0-58.64Z"/>
  <path d="M323.44,64.54c-.48-7.42-.38-14.65-.65-21.87-.28-7.42-.35-14.86-.59-22.28-.13-3.87-.28-7.75-.24-11.62,.03-3.37,1.29-6.17,4.4-7.79,5.44-2.83,12.03,.77,12.44,6.88,.34,5.06,.38,10.14,.51,15.21,.34,13.02,.57,26.04,.99,39.05,.24,7.34,.44,14.69,.63,22.03,.05,1.97-.03,3.92-.94,5.72-1.5,2.97-4.13,4.2-7.26,4.46-5.42,.45-10.86,.3-16.28,.49-10.85,.38-21.71,.5-32.57,.91-9.54,.36-19.08,.51-28.63,.68-3.56,.07-6.31-1.33-8.14-4.58-1.73-3.09-1.08-6.82,1.02-9.35,1.63-1.97,3.78-3,6.35-3.08,5.95-.19,11.89-.38,17.84-.53,11.9-.31,23.8-.59,35.69-.88,.79-.02,1.6,.23,2.37-.13,.53-.25,.76-.46,.18-.99-3.33-3.02-6.7-5.98-10.2-8.8-4.71-3.78-9.58-7.34-14.69-10.56-4-2.52-8.06-4.94-12.23-7.16-4.74-2.52-9.56-4.86-14.48-6.99-3.06-1.33-6.21-2.45-9.33-3.62-5.66-2.12-11.46-3.81-17.33-5.25-3.98-.98-8.01-1.74-12.07-2.41-7.45-1.23-14.95-2-22.5-2.21-7.87-.23-15.72,.03-23.57,.84-5.84,.6-11.64,1.38-17.4,2.46-5.47,1.03-10.87,2.36-16.21,3.98-3.16,.96-6.3,1.95-9.4,3.06-5.68,2.04-11.23,4.38-16.65,7.05-4.39,2.16-8.68,4.48-12.88,6.98-5.47,3.26-10.69,6.86-15.78,10.69-4.7,3.54-9.18,7.35-13.52,11.32-2.82,2.58-5.43,5.39-8.24,7.98-2.61,2.4-5.65,3.43-9.12,2.02-2.84-1.15-4.73-3.21-5.26-6.28-.48-2.78,.2-5.31,2.12-7.44,4.31-4.78,9.03-9.12,13.86-13.34,6.12-5.34,12.6-10.22,19.39-14.68,4.48-2.94,9.12-5.64,13.81-8.25,6.43-3.57,13.07-6.69,19.85-9.52,4.32-1.81,8.75-3.34,13.21-4.82,6.31-2.1,12.72-3.82,19.21-5.2,4.67-1,9.4-1.73,14.15-2.38,8.12-1.11,16.29-1.6,24.48-1.64,9.23-.04,18.44,.56,27.59,1.79,6.2,.83,12.37,1.91,18.46,3.34,8.48,2,16.79,4.62,24.92,7.73,5.71,2.18,11.29,4.72,16.73,7.52,6.89,3.54,13.55,7.47,20.01,11.77,5.77,3.84,11.23,8.07,16.68,12.33,2.75,2.15,5.43,4.39,8.15,6.58,.3,.24,.64,.44,1.12,.76Z"/>
</svg>