<?xml version="1.0" encoding="UTF-8"?>
<svg id="Layer_1" data-name="Layer 1" xmlns="http://www.w3.org/2000/svg" viewBox="0 0 598.01 576.67">
  <defs>
    <style>
      .cls-1 {
        fill: #fff;
      }
    </style>
  </defs>
  <path class="cls-1" d="M396.63,412.15v-3.57c0-45.76,.6-91.53-.24-137.28-.44-24.12,24.83-40.84,45.11-30.88,.19,.09,.47,.01,.77,.01,.47-4.83-.24-9.68,.6-14.49,2.68-15.22,14.27-25.39,30.02-26.22,15.35-.8,28.15,8.3,32.05,23.12,.66,2.5,1.11,2.77,3.47,1.81,20.38-8.35,43.19,6.81,43.69,29.02,.18,7.83,.03,15.67,.03,23.75,11.89-3.43,22.53-1.72,31.94,5.91,6.97,5.65,10.91,13.1,10.8,22.06-.37,30.57,1.7,61.06,2.69,91.58,.97,29.81,.52,59.58-4.04,89.15-2.38,15.42-7.28,30.2-11.6,45.13-2.63,9.08-4.89,18.25-6.59,27.56-1.97,10.78-10.22,17.79-21.25,17.81-40.65,.08-81.3,.07-121.96,0-9.96-.02-17.65-5.85-20.74-15.27-3.33-10.17-8.78-19.15-16.95-25.95-16.23-13.51-27.69-30.54-37.52-48.87-13.69-25.5-24.06-52.37-32.47-80.01-5.18-17.01,3.32-29.01,21.24-30.34,16.89-1.26,30.01,5.2,39.91,18.79,3.97,5.45,7.41,11.18,11.01,17.19Zm17.93-59.46c0,16.71,0,33.42,0,50.13,0,11.22,.05,22.45-.02,33.67-.04,7.59-5.55,11.53-12.83,9.34-6.01-1.81-10.37-5.73-13.95-10.71-4.31-6-7.1-12.82-10.44-19.35-2.62-5.11-5.29-10.22-9.46-14.25-6.28-6.06-13.82-8.72-22.54-7.28-2.8,.46-4.5,1.43-3.55,5.25,7.07,28.55,18.06,55.51,32.37,81.15,8.36,14.97,17.92,29.05,31.09,40.34,10.64,9.13,18.24,20.37,22.76,33.6,1.09,3.19,2.84,4.18,6.03,4.16,22.57-.09,45.15-.05,67.72-.05,16.84,0,33.67-.06,50.51,.05,3.48,.02,5.14-1,5.6-4.74,1.2-9.78,3.69-19.27,7.04-28.57,2.74-7.6,5.07-15.34,6.99-23.2,6.2-25.36,7.6-51.22,7.99-77.17,.6-39.67-3.76-79.22-3.03-118.9,.11-5.92-3.54-9.93-9.3-11.61-3.87-1.13-7.59-.68-11.38,.5-3.03,.94-4.2,2.53-4.18,5.9,.15,29.18,.09,58.36,.08,87.54,0,1.37,0,2.75-.16,4.1-.6,5.01-4.18,8.09-9.13,7.93-4.88-.16-8.13-3.21-8.56-8.12-.13-1.49-.11-2.99-.11-4.48,0-43.52,0-87.04-.02-130.56,0-1.86-.07-3.75-.33-5.59-.88-6.19-5.54-10.53-11.79-11.1-7.1-.65-12.91,2.67-14.94,8.61-.81,2.38-.92,4.87-.92,7.38,.02,41.4,.02,82.8,.01,124.2,0,1.37,.03,2.75-.08,4.11-.35,4.36-3.31,7.34-7.64,7.77-6.54,.65-10.23-3.13-10.23-10.59-.01-49.26,0-98.51-.01-147.77,0-1.62,.03-3.25-.11-4.86-.47-5.31-4.02-9.67-9.05-11.22-10.07-3.12-18.64,3.24-18.64,13.95-.03,49.51-.01,99.01-.01,148.52,0,1.25,.05,2.5-.04,3.74-.35,5.02-3.77,8.23-8.78,8.29-5.64,.07-9.11-3.43-9.12-9.45-.04-16.96-.02-33.92-.02-50.88,0-20.95,.04-41.9-.02-62.85-.03-9.36-6.55-15.08-15.78-14.07-7.55,.82-12,6.07-12.01,14.44-.04,27.56-.01,55.12-.02,82.68Z"/>
  <path class="cls-1" d="M212.38,394.96c9.9-13.59,23.02-20.05,39.91-18.79,17.91,1.34,26.41,13.34,21.24,30.34-8.42,27.65-18.78,54.51-32.47,80.01-9.84,18.33-21.29,35.35-37.52,48.87-8.17,6.8-13.62,15.78-16.95,25.95-3.08,9.42-10.78,15.25-20.74,15.27-40.65,.07-81.3,.08-121.96,0-11.03-.02-19.28-7.03-21.25-17.81-1.7-9.31-3.96-18.48-6.59-27.56-4.31-14.93-9.22-29.7-11.6-45.13C-.1,456.55-.55,426.77,.42,396.97c.99-30.52,3.06-61.01,2.69-91.58-.11-8.96,3.83-16.41,10.8-22.06,9.41-7.62,20.06-9.33,31.94-5.91,0-8.08-.15-15.92,.03-23.75,.5-22.21,23.31-37.37,43.69-29.02,2.36,.97,2.81,.69,3.47-1.81,3.91-14.82,16.7-23.93,32.05-23.12,15.75,.82,27.34,11,30.02,26.22,.85,4.81,.13,9.66,.6,14.49,.31,0,.58,.08,.77-.01,20.28-9.96,45.55,6.76,45.11,30.88-.84,45.75-.24,91.52-.24,137.28v3.57c3.6-6,7.04-11.73,11.01-17.19Zm-28.96-124.95c-.01-8.37-4.46-13.62-12.01-14.44-9.23-1-15.75,4.72-15.78,14.07-.07,20.95-.02,41.9-.02,62.85,0,16.96,.03,33.92-.02,50.88-.02,6.02-3.49,9.52-9.12,9.45-5.01-.07-8.43-3.27-8.78-8.29-.09-1.24-.04-2.49-.04-3.74,0-49.51,.01-99.01-.01-148.52,0-10.71-8.58-17.06-18.64-13.95-5.03,1.56-8.58,5.92-9.05,11.22-.14,1.61-.11,3.24-.11,4.86,0,49.26,0,98.51-.01,147.77,0,7.46-3.69,11.23-10.23,10.59-4.32-.43-7.29-3.41-7.64-7.77-.11-1.36-.08-2.74-.08-4.11,0-41.4,0-82.8,.01-124.2,0-2.51-.1-5-.92-7.38-2.03-5.94-7.84-9.25-14.94-8.61-6.25,.57-10.91,4.91-11.79,11.1-.26,1.84-.33,3.73-.33,5.59-.02,43.52-.01,87.04-.02,130.56,0,1.5,.02,3-.11,4.48-.43,4.91-3.68,7.96-8.56,8.12-4.95,.16-8.53-2.92-9.13-7.93-.16-1.36-.16-2.74-.16-4.1,0-29.18-.07-58.36,.08-87.54,.02-3.38-1.15-4.96-4.18-5.9-3.78-1.18-7.51-1.63-11.38-.5-5.75,1.68-9.41,5.69-9.3,11.61,.73,39.68-3.63,79.23-3.03,118.9,.39,25.94,1.79,51.81,7.99,77.17,1.92,7.86,4.25,15.6,6.99,23.2,3.35,9.29,5.83,18.79,7.04,28.57,.46,3.74,2.12,4.76,5.6,4.74,16.84-.11,33.67-.05,50.51-.05,22.57,0,45.15-.04,67.72,.05,3.2,.01,4.94-.97,6.03-4.16,4.52-13.24,12.12-24.48,22.76-33.6,13.16-11.29,22.73-25.37,31.09-40.34,14.31-25.64,25.3-52.6,32.37-81.15,.94-3.82-.75-4.78-3.55-5.25-8.73-1.44-16.26,1.22-22.54,7.28-4.17,4.02-6.85,9.14-9.46,14.25-3.34,6.52-6.13,13.34-10.44,19.35-3.57,4.98-7.93,8.9-13.95,10.71-7.27,2.19-12.78-1.75-12.83-9.34-.06-11.22-.02-22.45-.02-33.67,0-16.71,0-33.42,0-50.13,0-27.56,.02-55.12-.02-82.68Z"/>
  <path class="cls-1" d="M455.13,90.99c-10.11-7.85-19.36-15.77-29.31-22.87-37.98-27.09-80.13-43.45-126.45-48.51-62.17-6.79-120.06,6.23-173.38,39.03-19.3,11.87-36.68,26.15-52.33,42.54-5.06,5.3-5.19,12.63-.38,17.39,4.95,4.89,12.4,4.59,17.63-.79,43.26-44.44,95.75-69.85,157.54-75.05,55.69-4.69,107.21,8.41,154.31,38.65,12.5,8.03,24.04,17.27,34.95,27.44-1.31,1.24-2.75,.73-4.03,.76-24.93,.7-49.86,1.38-74.79,1.98-5.26,.13-9.18,2.39-11.43,7.02-2.14,4.4-1.48,8.78,1.6,12.62,2.91,3.63,6.9,4.49,11.38,4.36,26.55-.76,53.1-1.43,79.65-2.13,8.85-.23,17.7-.43,26.55-.71,8.49-.27,13.13-5.08,12.92-13.51-.9-35.53-1.85-71.05-2.81-106.57-.21-7.53-5.48-12.84-12.35-12.63-7.02,.22-11.74,5.59-11.55,13.33,.61,24.56,1.27,49.11,1.92,73.67,.04,1.33,.24,2.66,.37,3.99Z"/>
</svg>