<?xml version="1.0" encoding="UTF-8"?>
<svg id="Layer_1" data-name="Layer 1" xmlns="http://www.w3.org/2000/svg" viewBox="0 0 512 512">
  <path d="M256,147.46c-60.96,0-110.54,49.59-110.54,110.54s49.59,110.55,110.54,110.55,110.55-49.59,110.55-110.55-49.59-110.54-110.55-110.54Z"/>
  <rect x="238.54" width="34.91" height="110.54"/>
  <rect x="96.62" y="58.79" width="34.91" height="110.54" transform="translate(-47.24 114.07) rotate(-45)"/>
  <rect y="238.54" width="110.54" height="34.91"/>
  <rect x="58.79" y="380.49" width="110.54" height="34.91" transform="translate(-247.98 197.21) rotate(-45)"/>
  <rect x="238.54" y="401.45" width="34.91" height="110.55"/>
  <rect x="380.47" y="342.66" width="34.91" height="110.54" transform="translate(-164.83 397.93) rotate(-45)"/>
  <rect x="401.45" y="238.54" width="110.55" height="34.91"/>
  <rect x="342.66" y="96.61" width="110.54" height="34.91" transform="translate(35.89 314.79) rotate(-45)"/>
</svg>