<?xml version="1.0" encoding="UTF-8"?>
<svg id="Layer_1" data-name="Layer 1" xmlns="http://www.w3.org/2000/svg" viewBox="0 0 893.29 895.88">
  <defs>
    <style>
      .cls-1 {
        fill: #fff;
      }
    </style>
  </defs>
  <path class="cls-1" d="M296.84,471.82c-13.07,0-26.14,.28-39.19-.14-5.2-.17-7.34,1.7-9.52,6.29-16.58,34.91-53.68,55.21-89.9,49.65-38.84-5.97-68.82-36.27-73.89-74.68-5.43-41.16,19.56-80.45,59.46-93.52,39.72-13.01,83.34,4.08,102.71,40.96,3.6,6.86,7.58,8.74,14.9,8.59,23.94-.47,47.9-.36,71.85-.04,5.53,.07,8.82-1.26,9.79-6.93,.26-1.5,1-2.93,1.58-4.36q6.74-16.82-6.02-29.51c-49.72-49.7-99.47-99.38-149.06-149.21-4.8-4.82-8.01-6.78-15.45-3.06-63.89,31.84-144.6-10.09-157.14-81.11C5.83,71.67,47.38,11.18,108.48,1.53c65.72-10.38,126.54,33.31,135.62,97.68,3.29,23.3-2.2,45.16-13.22,65.57-3.47,6.42-2.37,9.94,2.65,14.84,53.66,52.35,107.12,104.9,160.41,157.63,4.68,4.63,8.11,5.31,14.11,2.48,33.25-15.69,66.68-15.18,99.7,.77,4.89,2.36,7.39,1.58,10.99-2.04,45.4-45.67,90.93-91.2,136.59-136.61,3.67-3.65,4.07-6.31,2.2-11.21-12.84-33.53-6.34-63.97,18.15-89.47,24.8-25.83,55.81-33.48,89.72-21.96,33.42,11.36,53.59,35.68,57.92,70.95,6.18,50.35-28.88,92.64-79.34,97.28-12.65,1.16-24.8-1.19-36.28-6.44-4.37-2-6.98-1.27-10.34,2.11-46.51,46.76-93.13,93.4-139.9,139.9-3.75,3.73-4.35,6.1-1.32,10.75,7.06,10.87,10.23,23.27,11.13,36.11,.31,4.41,1.23,6.23,6.07,7.08,33.33,5.85,66.62,11.94,99.82,18.51,6.48,1.28,8.97-.78,12.1-5.99,35.43-58.95,113.6-73.94,165.15-30.57,37.32,31.41,50.6,72.91,38.59,119.98-12.04,47.19-44.49,75.32-92.29,83.75-62.03,10.94-122.82-36.08-129.99-99.46-.53-4.64-1.41-7.11-6.49-8.15-32.82-6.79-65.61-13.76-98.32-21.1-4.89-1.1-7.06-.28-9.35,4.06-7.67,14.49-18.11,26.74-31.5,36.28-3.29,2.34-3.97,4.34-2.72,8.45,14.96,48.93,29.66,97.94,44.28,146.97,1.33,4.45,3.24,6.17,8.22,6.51,45.12,3.08,80.32,40.89,80.43,85.93,.11,45.42-34.52,82.38-80.98,86.47-43.13,3.79-83.31-27.69-90.81-71.36-5.04-29.29,3.08-54.77,23.6-76.05,3.63-3.77,4.28-6.51,2.77-11.19-15.67-48.38-31.17-96.81-46.65-145.25-1.29-4.04-2.47-6.98-7.96-6.75-18.09,.77-35.01-4.37-51.15-12.01-4.44-2.1-6.91-1.61-10.31,1.8-57.73,57.96-115.54,115.86-173.57,173.52-4.32,4.29-2.62,7.25-.84,11.29,20.26,46.02,14.91,88.71-18.58,126.47-33.53,37.79-87.91,47.23-134.86,24.81-43.22-20.63-68.16-69.48-60.57-118.62,12-77.7,90.03-120.55,162.31-88.74,7.44,3.28,11.47,2.7,17.22-3.1,55.83-56.36,111.98-112.39,168.17-168.38,4.38-4.37,7.61-8.11,2.2-13.69-.2-.2-.28-.56-.33-.86-2.94-18.28-15.14-20.82-30.78-18.85-7.66,.96-15.53,.17-23.31,.17ZM128.39,169.81c29.26-.03,53.96-25.97,53.9-56.6-.06-29.83-24.23-53.85-54.08-53.73-29.85,.11-53.57,24.15-53.48,54.22,.09,31.8,23.37,56.15,53.66,56.12Zm-14.24,666.26c30.8-.14,53.5-23.12,53.22-53.86-.27-29.94-24.55-54.05-54.12-53.75-29.86,.3-53.65,24.47-53.45,54.31,.2,29.77,24.33,53.43,54.35,53.29ZM507.79,441.88c.04-29.87-23.98-53.88-53.86-53.84-29.81,.04-53.97,24.38-53.7,54.08,.27,29.5,23.96,53.2,53.47,53.49,29.63,.29,54.05-23.96,54.09-53.74Zm328.53,65.81c.07-29.8-24.06-54.06-53.78-54.06-29.67,0-53.99,24.49-53.77,54.14,.23,29.45,24.01,53.33,53.39,53.6,29.64,.27,54.08-23.96,54.16-53.69Zm-125.22-349.85c-.07,14.93,11.36,26.63,26.26,26.88,14.77,.25,27.05-11.44,27.32-26.02,.28-15.01-12.03-27.59-26.96-27.54-14.81,.05-26.56,11.82-26.63,26.68ZM169.7,468.48c14.79,.33,27.11-11.25,27.51-25.84,.41-14.97-11.84-27.65-26.78-27.72-14.78-.07-26.67,11.68-26.81,26.51-.15,14.95,11.21,26.72,26.08,27.05Zm371.2,313.84c0,15.23,12.22,27.25,27.34,26.92,14.2-.31,25.88-12.2,25.99-26.45,.12-15.43-11.61-27.25-26.93-27.15-14.94,.1-26.41,11.69-26.4,26.68Z"/>
</svg>