<?xml version="1.0" encoding="UTF-8"?>
<svg id="Layer_1" data-name="Layer 1" xmlns="http://www.w3.org/2000/svg" viewBox="0 0 374.13 374.13">
  <defs>
    <style>
      .cls-1 {
        fill: #900;
      }

      .cls-2 {
        fill: #fdfdfd;
      }
    </style>
  </defs>
  <path class="cls-1" d="M0,187.08C.02,83.81,83.8,.01,187.04,0c103.4-.01,187.25,83.97,187.09,187.41-.16,103.21-84.18,186.92-187.41,186.72C83.63,373.93-.02,290.13,0,187.08Zm234.22-5.51c1.22-.83,2.23-1.5,3.22-2.21,25.43-18.1,28.87-52.71,7.15-73.69-11.99-11.59-26.87-16.48-43.2-16.64-29.55-.29-59.1-.08-88.66-.19-2.41,0-2.85,.71-2.82,2.93,.12,9.48,.05,18.95,.05,28.43,0,53.87,0,107.74,0,161.6,0,1.79-.59,3.51,2.61,3.49,30.42-.17,60.85-.06,91.27-.2,9.97-.05,19.47-2.53,28.44-6.86,29.99-14.46,40.99-49.56,24.13-76.95-5.36-8.72-12.91-15.07-22.21-19.72Z"/>
  <path class="cls-2" d="M234.16,181.56c9.29,4.66,16.84,11,22.21,19.72,16.85,27.4,5.86,62.49-24.13,76.95-8.97,4.33-18.48,6.81-28.44,6.86-30.42,.14-60.85,.04-91.27,.2-3.2,.02-2.61-1.7-2.61-3.49,0-53.87,0-107.74,0-161.6,0-9.48,.07-18.95-.05-28.43-.03-2.22,.42-2.94,2.82-2.93,29.55,.11,59.11-.11,88.66,.19,16.33,.16,31.21,5.05,43.2,16.64,21.71,20.98,18.28,55.59-7.15,73.69-.99,.7-2,1.37-3.22,2.21Zm-55.72,59.32s0-.01,0-.02c4.6,0,9.21,.12,13.81-.03,8.39-.27,14.74-4.54,17.23-11.38,4.41-12.12-3.31-23.66-16.67-24.26-9.56-.43-19.16-.07-28.74-.17-1.81-.02-2.34,.6-2.32,2.36,.06,10.33,.07,20.65,0,30.98-.02,1.93,.53,2.61,2.52,2.55,4.72-.13,9.45-.04,14.18-.04Zm-16.66-92.86c0,4.86,.05,9.71-.03,14.57-.03,1.78,.28,2.71,2.41,2.69,8.72-.12,17.44,.18,26.15-.14,10.86-.39,17.3-7.25,17.09-17.57-.21-9.98-7.03-16.43-17.73-16.58-8.34-.11-16.69,.01-25.03-.06-1.87-.02-3,.13-2.91,2.52,.18,4.85,.05,9.71,.05,14.57Z"/>
  <path class="cls-1" d="M179.27,240.88c-4.73,0-9.46-.09-14.18,.04-1.99,.05-2.53-.62-2.52-2.55,.08-10.33,.07-20.65,0-30.98-.01-1.76,.51-2.37,2.32-2.36,9.58,.09,19.17-.27,28.74,.17,13.36,.6,21.09,12.14,16.67,24.26-2.49,6.84-8.84,11.11-17.23,11.38-4.6,.15-9.21,.03-13.81,.03,0,0,0,.01,0,.02Z"/>
  <path class="cls-1" d="M164.28,148.01c0-4.86,.13-9.72-.05-14.57-.09-2.39,1.05-2.53,2.91-2.52,8.34,.07,16.69-.05,25.03,.06,10.7,.14,17.52,6.59,17.73,16.58,.22,10.33-6.23,17.18-17.09,17.57-8.71,.31-17.43,.02-26.15,.14-2.14,.03-2.44-.9-2.41-2.69,.08-4.86,.03-9.71,.03-14.57Z"/>
</svg>