<?xml version="1.0" encoding="UTF-8"?>
<svg id="Layer_1" data-name="Layer 1" xmlns="http://www.w3.org/2000/svg" viewBox="0 0 374.08 374.13">
  <defs>
    <style>
      .cls-1 {
        fill: #096200;
      }

      .cls-2 {
        fill: #fdfdfd;
      }
    </style>
  </defs>
  <path class="cls-1" d="M0,187.2C-.07,84.34,83.79,.04,186.21,0c104.06-.04,187.81,83.29,187.87,186.93,.06,103.35-83.62,187.19-186.85,187.2C83.98,374.15,.07,290.37,0,187.2Zm82.73,98.01c18.95,0,37.52-.03,56.08,.04,1.87,0,2.19-1.03,2.66-2.41,2.96-8.84,6.06-17.63,8.98-26.48,.67-2.03,1.44-2.98,3.85-2.96,21.45,.12,42.89,.1,64.34,.02,1.97,0,2.8,.64,3.4,2.48,2.86,8.74,5.97,17.4,8.79,26.15,.76,2.34,1.67,3.27,4.33,3.25,17.7-.15,35.41-.07,53.12-.1,.91,0,1.94,.33,2.91-.53-.27-.74-.49-1.44-.76-2.11-25.54-63.66-51.1-127.31-76.59-190.99-.83-2.07-1.88-2.7-4.05-2.68-15.34,.1-30.67,.15-46.01-.03-3.13-.04-4.42,.97-5.55,3.86-20.77,53.12-41.67,106.19-62.53,159.27-4.31,10.96-8.57,21.94-12.98,33.24Z"/>
  <path class="cls-2" d="M82.73,285.21c4.41-11.29,8.67-22.27,12.98-33.24,20.86-53.08,41.77-106.15,62.53-159.27,1.13-2.89,2.42-3.9,5.55-3.86,15.33,.18,30.67,.13,46.01,.03,2.17-.01,3.22,.62,4.05,2.68,25.49,63.68,51.04,127.33,76.59,190.99,.27,.67,.5,1.37,.76,2.11-.97,.86-2,.53-2.91,.53-17.71,.02-35.41-.06-53.12,.1-2.66,.02-3.58-.9-4.33-3.25-2.82-8.75-5.93-17.41-8.79-26.15-.6-1.84-1.43-2.49-3.4-2.48-21.45,.07-42.89,.09-64.34-.02-2.41-.01-3.18,.94-3.85,2.96-2.92,8.85-6.01,17.65-8.98,26.48-.47,1.39-.79,2.42-2.66,2.41-18.57-.07-37.14-.04-56.08-.04Zm103.5-135.02c-7.32,20.7-14.36,40.59-21.45,60.64h43.09c-7.16-20.08-14.23-39.89-21.63-60.64Z"/>
  <path class="cls-1" d="M186.23,150.19c7.4,20.75,14.47,40.56,21.63,60.64h-43.09c7.09-20.05,14.13-39.95,21.45-60.64Z"/>
</svg>