<svg width="78" height="71" viewBox="0 0 78 71" fill="none" xmlns="http://www.w3.org/2000/svg">
<path d="M46.8983 0.138823C45.3371 0.37454 43.9933 0.814544 42.4942 1.5767C38.2842 3.71386 34.5014 8.38105 32.2565 14.2033C31.6196 15.8611 30.9283 18.3676 30.5788 20.269L30.4156 21.1962H25.7241C23.153 21.1962 21.0247 21.2276 21.0014 21.2591C20.9781 21.2983 21.25 21.7148 21.5995 22.1862C22.6559 23.6162 23.355 24.5748 26.8193 29.3677C28.6524 31.8977 30.3768 34.2785 30.6642 34.6713C31.7827 36.2035 32.3109 36.9342 33.3984 38.4428C34.0275 39.3071 35.0218 40.6821 35.6121 41.5071C36.2025 42.3243 36.7384 43 36.8006 43C36.9171 43 36.9637 42.945 41.4999 37.2642C43.2554 35.0721 45.3138 32.487 46.0828 31.5284C46.8517 30.5699 48.0246 29.1006 48.6849 28.2677C49.3451 27.427 50.2073 26.3584 50.5879 25.8791C50.9763 25.3998 51.8152 24.3548 52.4521 23.5534C53.0891 22.7519 53.7493 21.9269 53.9202 21.7226C54.1765 21.4162 54.2154 21.3298 54.1222 21.2748C54.0522 21.2276 52.0793 21.1962 49.4073 21.1962H44.8011V21.0155C44.8011 20.6698 45.2672 18.1476 45.4924 17.2519C46.5488 13.1111 48.6693 10.5339 51.6909 9.71678C52.4366 9.5125 54.394 9.42607 55.4659 9.55964C57.7729 9.83464 61.245 11.1704 63.9869 12.844C64.9812 13.449 65.1287 13.5433 66.1618 14.2347C69.6961 16.5919 73.0905 19.4126 76.5082 22.8384C77.3082 23.6398 77.9762 24.2762 77.9995 24.2605C78.0151 24.2369 77.6267 23.6005 77.1296 22.8462C72.7798 16.2619 69.0669 11.6732 64.9579 7.81533C61.6955 4.75887 58.4797 2.59028 55.264 1.28598C54.2231 0.861688 53.9357 0.767401 52.724 0.453112C50.9918 -0.00260719 48.6305 -0.128323 46.8983 0.138823Z" fill="white"/>
<path d="M50.3434 36.0478C50.2417 36.0947 49.8118 36.3757 49.3974 36.6724C48.7954 37.1017 48.6625 37.2345 48.7563 37.2891C48.8267 37.3203 49.6241 37.5389 50.5388 37.7731C53.236 38.4523 54.6354 38.8817 56.4179 39.5843C58.9821 40.5914 61.4213 41.9654 63.1412 43.3628C64.4312 44.4011 65.8306 46.0796 66.4638 47.3287C67.6365 49.6707 67.5974 51.9972 66.3309 54.4485C65.7758 55.5337 65.1113 56.4002 64.0637 57.4151C58.513 62.8096 47.396 65.8699 34.8562 65.4483C22.3945 65.0268 12.3642 61.2717 8.31456 55.5102C7.82985 54.8232 7.16534 53.418 6.96989 52.6842C6.7119 51.7317 6.67281 50.2328 6.87608 49.3116C7.59532 46.0874 10.3238 43.1755 14.8112 40.8568C17.5553 39.436 20.5573 38.4055 24.4819 37.5467C24.9353 37.4452 25.3028 37.3281 25.3028 37.2891C25.3028 37.1954 24.7321 36.7348 24.091 36.3054C23.5672 35.9541 23.4108 35.9463 22.16 36.2196C12.0828 38.3899 4.79652 42.3948 1.61466 47.5082C-0.0740021 50.2172 -0.441442 53.0355 0.527973 55.8069C1.91173 59.7572 5.85975 63.4264 11.5824 66.0807C15.3897 67.845 19.4003 69.0785 24.091 69.9295C25.0057 70.1012 26.6162 70.3432 27.1791 70.4057C27.437 70.4291 28.0156 70.5072 28.469 70.5696C28.9224 70.6243 29.8215 70.718 30.4626 70.757C31.1114 70.8038 32.1278 70.8741 32.7297 70.9209C34.1526 71.0224 40.6023 71.0302 41.7594 70.9209C44.8161 70.6477 45.4025 70.593 45.4963 70.5618C45.5588 70.5384 45.9263 70.4837 46.3172 70.4447C47.0051 70.3666 47.4351 70.3042 49.5772 69.9685C55.941 68.9536 62.0076 66.7521 66.542 63.8245C67.3081 63.3249 68.7466 62.2007 69.5284 61.4903C74.1097 57.3136 75.2433 52.2626 72.593 47.8127C69.9897 43.4331 64.3608 39.7639 56.7306 37.4609C54.8074 36.8831 52.0868 36.2118 50.9063 36.0244C50.6717 35.9854 50.4606 35.9932 50.3434 36.0478Z" fill="white"/>
<path d="M42.5685 43.0455C42.4896 43.0677 42.4659 43.5268 42.4659 44.9781C42.4659 46.0221 42.4423 46.955 42.4186 47.0513L42.3712 47.2142L36.4365 47.1994L30.5097 47.1772L30.486 45.1188L30.4702 43.0677L27.495 43.0826L24.5276 43.1048L24.354 43.7341C24.2593 44.0821 24.0304 44.9485 23.841 45.6593C23.6595 46.3701 23.1071 48.4877 22.6178 50.361C22.1285 52.2343 21.5445 54.4483 21.3314 55.2849C21.0473 56.366 20.9605 56.8251 21.0157 56.8917C21.142 57.0398 29.389 57.0324 29.5153 56.8917C29.5627 56.8325 29.6495 56.3734 29.7126 55.8699C29.7836 55.3664 29.9178 54.315 30.0283 53.5449C30.1309 52.7675 30.2808 51.7012 30.3519 51.1755C30.4308 50.6424 30.5255 50.1685 30.5649 50.1167C30.6912 49.976 42.1345 49.9834 42.3476 50.1315C42.4659 50.213 42.5212 50.4351 42.6317 51.257C42.7974 52.4935 43.1367 55.0332 43.2867 56.0846C43.3498 56.5067 43.4209 56.8695 43.4524 56.8991C43.5235 56.9731 51.9047 56.9657 51.9836 56.8917C52.0151 56.8621 51.9994 56.677 51.952 56.4845C51.1076 53.2413 49.1819 45.8444 48.5901 43.549C48.519 43.2825 48.4401 43.1566 48.2981 43.09C48.156 43.0233 47.3984 42.9937 45.3859 43.0011C43.8865 43.0011 42.6159 43.0233 42.5685 43.0455Z" fill="white"/>
</svg>
