<?xml version="1.0" standalone="no"?>
<!DOCTYPE svg PUBLIC "-//W3C//DTD SVG 20010904//EN"
 "http://www.w3.org/TR/2001/REC-SVG-20010904/DTD/svg10.dtd">
<svg version="1.0" xmlns="http://www.w3.org/2000/svg"
 width="1198.000000pt" height="1280.000000pt" viewBox="0 0 1198.000000 1280.000000"
 preserveAspectRatio="xMidYMid meet">

<g transform="translate(0.000000,1280.000000) scale(0.100000,-0.100000)"
fill="#000000" stroke="none">
<path d="M7070 11030 c-201 -30 -374 -86 -567 -183 -542 -272 -1029 -866
-1318 -1607 -82 -211 -171 -530 -216 -772 l-21 -118 -604 0 c-331 0 -605 -4
-608 -8 -3 -5 32 -58 77 -118 136 -182 226 -304 672 -914 236 -322 458 -625
495 -675 144 -195 212 -288 352 -480 81 -110 209 -285 285 -390 76 -104 145
-190 153 -190 15 0 21 7 605 730 226 279 491 608 590 730 99 122 250 309 335
415 85 107 196 243 245 304 50 61 158 194 240 296 82 102 167 207 189 233 33
39 38 50 26 57 -9 6 -263 10 -607 10 l-593 0 0 23 c0 44 60 365 89 479 136
527 409 855 798 959 96 26 348 37 486 20 297 -35 744 -205 1097 -418 128 -77
147 -89 280 -177 455 -300 892 -659 1332 -1095 103 -102 189 -183 192 -181 2
3 -48 84 -112 180 -560 838 -1038 1422 -1567 1913 -420 389 -834 665 -1248
831 -134 54 -171 66 -327 106 -223 58 -527 74 -750 40z"/>
<path d="M7508 6436 c-13 -6 -68 -42 -121 -80 -77 -55 -94 -72 -82 -79 9 -4
111 -32 228 -62 345 -87 524 -142 752 -232 328 -129 640 -305 860 -484 165
-133 344 -348 425 -508 150 -300 145 -598 -17 -912 -71 -139 -156 -250 -290
-380 -710 -691 -2132 -1083 -3736 -1029 -1594 54 -2877 535 -3395 1273 -62 88
-147 268 -172 362 -33 122 -38 314 -12 432 92 413 441 786 1015 1083 351 182
735 314 1237 424 58 13 105 28 105 33 0 12 -73 71 -155 126 -67 45 -87 46
-247 11 -1289 -278 -2221 -791 -2628 -1446 -216 -347 -263 -708 -139 -1063
177 -506 682 -976 1414 -1316 487 -226 1000 -384 1600 -493 117 -22 323 -53
395 -61 33 -3 107 -13 165 -21 58 -7 173 -19 255 -24 83 -6 213 -15 290 -21
182 -13 1007 -14 1155 0 391 35 466 42 478 46 8 3 55 10 105 15 88 10 143 18
417 61 814 130 1590 412 2170 787 98 64 282 208 382 299 586 535 731 1182 392
1752 -333 561 -1053 1031 -2029 1326 -246 74 -594 160 -745 184 -30 5 -57 4
-72 -3z"/>
<path d="M6573 5553 c-10 -3 -13 -65 -13 -261 0 -141 -3 -267 -6 -280 l-6 -22
-752 2 -751 3 -3 278 -2 277 -377 -2 -376 -3 -22 -85 c-12 -47 -41 -164 -65
-260 -23 -96 -93 -382 -155 -635 -62 -253 -136 -552 -163 -665 -36 -146 -47
-208 -40 -217 16 -20 1061 -19 1077 0 6 8 17 70 25 138 9 68 26 210 40 314 13
105 32 249 41 320 10 72 22 136 27 143 16 19 1466 18 1493 -2 15 -11 22 -41
36 -152 21 -167 64 -510 83 -652 8 -57 17 -106 21 -110 9 -10 1071 -9 1081 1
4 4 2 29 -4 55 -107 438 -351 1437 -426 1747 -9 36 -19 53 -37 62 -18 9 -114
13 -369 12 -190 0 -351 -3 -357 -6z"/>
</g>
</svg>
