<?xml version="1.0" encoding="UTF-8"?>
<svg id="Layer_1" data-name="Layer 1" xmlns="http://www.w3.org/2000/svg" viewBox="0 0 353.26 178.86">
  <defs>
    <style>
      .cls-1 {
        fill: #fff;
      }
    </style>
  </defs>
  <path d="M176.4,178.62c-30.54,0-61.1,.66-91.62-.16-39.76-1.07-74.19-30.58-82.65-69.42C-9.28,56.6,26.31,6.73,79.61,.57c3.83-.44,7.72-.49,11.58-.49,56.85-.03,113.7-.18,170.54,.04,37.09,.14,64.99,16.66,81.93,49.61,27.2,52.91-6.2,118.13-64.85,127.86-6.04,1-12.14,1.23-18.26,1.23-28.05,0-56.1,0-84.15,0,0-.07,0-.13,0-.2Zm-.26-17.78c28.18,0,56.36,.01,84.54-.01,4.98,0,9.95-.24,14.91-.98,38.38-5.77,65.96-44.82,58.44-82.87-6.95-35.22-34.8-58.66-71.1-58.86-57.61-.3-115.22,.05-172.83-.12-49.33-.14-84.09,47.47-68.42,94.36,9.03,27.03,35.23,48.89,69.54,48.54,28.3-.29,56.61-.06,84.92-.06Z"/>
  <path class="cls-1" d="M92.52,160.81c-4.98,0-9.95-.24-14.91-.98-38.38-5.77-65.96-44.82-58.44-82.87C26.12,41.74,53.98,18.3,90.27,18.11c57.61-.3,115.22,.05,172.83-.12,49.33-.14,84.09,47.47,68.42,94.36-9.03,27.03-35.23,48.89-69.54,48.54-28.3-.29-56.61-.06-84.92-.06-28.18,0-56.36,.01-84.54-.01Zm107.32-71.6c-.01,34.15,27.32,61.66,61.34,61.71,34.3,.05,61.63-27.21,61.77-61.64,.14-33.8-27.51-61.3-61.71-61.37-33.69-.07-61.39,27.58-61.4,61.31Z"/>
  <path d="M261.24,27.9c-33.69-.07-61.39,27.58-61.4,61.31-.01,34.15,27.32,61.66,61.34,61.71,34.3,.05,61.63-27.21,61.77-61.64,.14-33.8-27.51-61.3-61.71-61.37Z"/>
</svg>