<?xml version="1.0" encoding="UTF-8"?>
<svg id="Layer_1" data-name="Layer 1" xmlns="http://www.w3.org/2000/svg" viewBox="0 0 16 20">
  <defs>
    <style>
      .cls-1 {
        fill: #fff;
      }
    </style>
  </defs>
  <path class="cls-1" d="M14.33,7.1c2.71,3.49,2.07,8.52-1.43,11.22s-8.52,2.07-11.22-1.43S-.39,8.38,3.1,5.67c1.13-.88,2.48-1.43,3.9-1.61V2h2v2.06c1.46,.18,2.8,.76,3.9,1.62l1.46-1.46,1.42,1.42-1.46,1.45h0Zm-6.32,10.91c3.31,0,6-2.69,6-6s-2.69-6-6-6-6,2.69-6,6,2.69,6,6,6ZM5.01,0h6V2H5.01V0Zm5.12,8.46l1.42,1.42-3.54,3.52-1.41-1.4,3.53-3.54Z"/>
</svg>