<?xml version="1.0" encoding="UTF-8"?>
<svg xmlns="http://www.w3.org/2000/svg" id="Layer_1" data-name="Layer 1" viewBox="0 0 24 24">
  <path d="m20,6h2c1.103,0,2-.897,2-2v-2c0-1.103-.897-2-2-2h-2c-1.103,0-2,.897-2,2H6c0-1.103-.897-2-2-2h-2C.897,0,0,.897,0,2v2c0,1.103.897,2,2,2v12c-1.103,0-2,.897-2,2v2c0,1.103.897,2,2,2h2c1.103,0,2-.897,2-2h12c0,1.103.897,2,2,2h2c1.103,0,2-.897,2-2v-2c0-1.103-.897-2-2-2h-2c-.168,0-.332.021-.488.06l-3.67-4.281c.102-.24.158-.503.158-.779v-2c0-.276-.056-.539-.158-.779l3.67-4.281c.156.039.32.06.488.06Zm0-4h2v2s-2,0-2,0v-2Zm0,18h2v2s-2,0-2,0v-2ZM2,2h2v2s-2,0-2,0v-2Zm0,20v-2h2v2s-2,0-2,0Zm4-2c0-1.103-.897-2-2-2V6c1.103,0,2-.897,2-2h12c0,.188.027.37.075.542l-3.834,4.473c-.079-.01-.16-.015-.241-.015h-2c-1.103,0-2,.897-2,2v2c0,1.103.897,2,2,2h2c.082,0,.162-.005.241-.015l3.834,4.473c-.049.173-.075.354-.075.542H6Zm6-7v-2h2v2s-2,0-2,0Z"/>
</svg>
